<?xml version="1.0" encoding="UTF-8" standalone="no"?>
<svg id="svg4174" xmlns:rdf="http://www.w3.org/1999/02/22-rdf-syntax-ns#" xmlns="http://www.w3.org/2000/svg" height="189" viewBox="0 0 1016 189" width="1016" version="1.1" xmlns:cc="http://creativecommons.org/ns#" xmlns:dc="http://purl.org/dc/elements/1.1/">
<path id="path4184" d="m950.51 188.26c-2.193-0.22352-4.4654-0.80314-5.0496-1.288-0.58427-0.4849-3.0346-1.197-5.4452-1.5825-5.9906-0.95792-12.006-5.2714-16.548-11.866-2.09-3.04-3.96-5.52-4.15-5.52-0.99 0-13.01 8.69-14.13 10.22-4.19 5.72-21.19-1.89-21.19-9.49 0-3.4-0.85407-3.8592-4.0771-2.1925-10.515 5.4376-28.346-1.3984-33.775-12.949-2.2144-4.7109-2.8947-5.0476-9.3486-4.6266-6.8644 0.44776-11.862-4.268-14.253-13.45-2.3-8.79-4.91-10.51-16.02-10.51-7.3589 0-9.8569-3.1108-3.6012-4.4848 3.6562-0.80304 4.384-1.7262 6.518-8.2678 1.4815-4.5412 3.2294-7.2261 9.9265-15.247 0.6888-0.825 4.1486-4.1407 7.6885-7.3682l6.4361-5.8682 6.113 0.56779 6.113 0.56779-0.4457-3.8585c-0.28663-2.4815 0.11483-4.714 1.1249-6.2556 1.3389-2.0434 1.3965-3.2271 0.39076-8.022-1.4123-6.7332-0.28355-10.166 3.9393-11.98 3.6343-1.5613 3.562-1.4929 2.8295-2.678-0.41457-0.67079-1.4894-0.70367-3.0914-0.09458-5.4249 2.0625-6.6421-0.17405-5.4147-9.9491 2.3634-18.822 9.1174-25.099 27.182-25.262l11.145-0.10019 2.6301 3.1505c4.0826 4.8903 14.577 4.8229 15.51-0.09955 2.516-13.269 22.803-13.179 33.514 0.14976 4.0917 5.0916 4.2959 5.0851 9.3396-0.29698 8.4697-9.038 28.37-12.041 35.12-5.2989 4.3663 4.3609 7.2403 6.0128 13.295 7.6416 4.8157 1.2956 6.3938 3.8073 6.5904 10.489 0.11324 3.8499 0.22184 3.9619 5.0311 5.1886 12.559 3.2033 14.85 14.079 6.5764 31.216-2.7455 5.6868-4.9918 10.948-4.9918 11.691 0 0.74326-0.4586 1.6348-1.019 1.9812-6.9608 4.302-6.7726 15.094 0.3556 20.387 11.792 8.7562 13.3 20.339 3.6993 28.417-3.4796 2.9279-3.5814 3.281-1.5359 5.3265 3.5832 3.5832 0.7246 15.357-3.7285 15.357-1.7271 0-1.9064 0.44129-1.3204 3.25 1.8301 8.7717 1.7523 11.698-0.4307 16.208-3.8343 7.9205-13.549 13.504-23.54 13.531-2.211 0.006-7.2679 0.91082-11.237 2.0108-7.0744 1.9604-8.6619 2.0797-16.73 1.2574zm16.815-10.192c1.55-0.59 6.52-1.07 11.04-1.07 16.136 0 20.521-5.7097 18.174-23.662-0.76317-5.8377-0.66693-6.3008 1.8277-8.7954 3.0345-3.0344 3.2005-4.2262 1.1394-8.1781-2.3374-4.4818-1.8337-6.134 2.7438-9.0013 7.2977-4.571 7.9085-8.9681 2.1336-15.36-4.4555-4.9317-6.0521-4.99-10.437-0.38077-4.575 4.8086-10.273 7.329-16.631 7.3559-6.1654 0.0261-10.315 1.4114-10.315 3.4434 0 2.7271-11.66 23.997-16.396 29.91-3.07 3.84-13.89 10.67-16.89 10.67-6.727 0 3.0772 13.176 11.936 16.041 3.4934 1.1296 17.841 0.48413 21.679-0.97529zm-64.353-9.4378c0.81133-0.62018 2.5093-2.33 3.7733-3.7997 4.1644-4.842 10.465-7.1423 17.548-6.4062 11.659 1.2117 18.302-4.2262 30.049-24.598 10.177-17.648 9.1184-18.547-6.141-5.2134-6.5714 5.7419-7.7503 6.1988-16.741 6.4879-11.721 0.3769-22.186-1.4648-28.73-5.0561-6.9246-3.8003-9.1544-3.8616-10.62-0.29208-2.9644 7.2214-3.009 8.9119-0.44771 16.94 2.0384 6.389 2.3735 8.9345 1.841 13.988-0.95906 9.1033 3.2907 12.671 9.4681 7.9495zm-23.47-8.78c9.5052-2.564 9.3915-2.2883 6.0524-14.672-1.9452-7.2141-1.3839-13.295 1.5754-17.064 3.5408-4.5103 2.2718-8.7442-1.5633-5.2159-9.2074 8.4707-27.754 2.7966-22.563-6.9028 1.54-2.88 10.95-7 15.98-7 8.215 0 12.137-1.8498 11.477-5.4127-0.31472-1.698-0.67396-6.9015-0.79831-11.563l-0.22608-8.4759-7.2391-2.6721c-3.9815-1.4697-9.3546-4.4055-11.94-6.5241-3.9095-3.2034-5.4209-3.8358-8.9764-3.756-5.7241 0.12835-10.8 5.7267-7.2067 7.9477 0.65038 0.40196 0.81878 2.1519 0.42905 4.4587-0.47721 2.8246-0.0471 5.1674 1.6794 9.1474 4.4273 10.206 3.1446 22.353-3.0791 29.159-7.7569 8.4828-9.1537 14.796-4.1 18.533 1.65 1.2199 3 3.1359 3 4.2579 0 4.978 8.7037 14.403 15.143 16.398 4.3853 1.3587 5.0515 1.3238 12.357-0.64676zm59.5-30.85c2.7571-2.1566 2.7068-2.1823-4.6449-2.3692-7.26-0.18-11.36-5.05-11.36-13.5 0-2.2207-2.7209-2.9618-4.55-1.2393-2.3564 2.2191-7.0655 2.1956-9.9198-0.0495-5.6094-4.4123-15.403-0.32549-15.503 6.4697-0.11 7.14 38.91 16.21 45.97 10.69zm-60.7-7.617c12.514-6.3228 8.684-11.032-5.0497-6.2082-5.144 1.8066-6.25 2.59-6.25 4.4268 0 3.6512 5.7918 4.5643 11.3 1.7814zm63.402-1.3426c5.88-3.58 8.3-12.08 6.57-23.04l-0.86843-5.5-3.2914 3.4532c-12.641 13.263-14.483 32.45-2.408 25.087zm13.277-3.2475c1.1309-1.2139 2.5395-4.0264 3.1302-6.25 0.59074-2.2236 2.0928-6.068 3.3379-8.543 2.12-4.22 4.55-10.797 4.55-12.321 0-1.409-6.2299-0.60235-9.9314 1.286l-3.8517 1.965 0.52522 8.4185c0.38554 6.1798 0.10691 9.6462-1.0478 13.035-1.8128 5.3202-0.39619 6.3595 3.2839 2.4094zm-24.989-3.2802c1.51-1.81 0.64-4.51-1.46-4.51-1.03 0-1.53 0.97-1.53 3 0 3.281 1.0718 3.8233 2.9894 1.5127zm52.815-1.621c8.31-3.73 9.2-5.1 9.2-14.146 0-7.1307 0.32376-8.4642 3.296-13.576 5.8-10.006 7.9-15.508 8.8-22.668 1.5329-13.051 1.4709-13.331-3.4246-15.429-3.2229-1.3815-4.6568-2.7188-5.5912-5.2145-0.69113-1.846-1.6441-4.3431-2.1178-5.549-0.57947-1.4753-4.2627-3.8051-11.259-7.1215-7.4235-3.5191-10.557-5.5377-10.954-7.0574-1.131-4.3248-15.616-0.4192-23.798 6.4168-2.1608 1.8053-4.4537 3.4574-5.0953 3.6712-0.83823 0.27941-0.67217 1.6835 0.58993 4.9883 1.9792 5.1824 1.5293 7.808-2.0772 12.122-2.1854 2.6141-3.3364 7.2698-1.6085 6.5066 0.41508-0.18333 2.8901-1.182 5.5-2.2192 2.6-1.037 4.74-2.243 4.74-2.681 0-1.3236 4.4168-7.7882 5.6862-8.3225 4.1391-1.7421 8.7214 7.0741 10.306 19.83 1.2161 9.7863 2.1776 12.783 5.4993 17.138 4.6684 6.1207 3.0925 17.372-3.1602 22.561-1.3937 1.1567-0.89676 7.7251 0.84052 11.11 1.2709 2.4765 8.7261 2.2939 14.633-0.35827zm-62.387-5.4987c2.67-1.02 1.97-4.39-0.91-4.39-2 0-2.5 0.5-2.5 2.5 0 2.5712 0.67566 2.9454 3.4182 1.893zm-16-2c1.01-0.38 1.59-1.82 1.59-3.91 0-4.3659 4.3865-8.1174 10.577-9.0457 4.53-0.678 6.42-2.723 6.42-6.959 0-2.606-7.58-4.045-11.49-2.181-3.72 1.772-12.51 12.198-12.51 14.834 0 0.895-0.68 2.187-1.5 2.872-4.1627 3.4547 0.93236 6.69 6.9182 4.393zm9.84-1.78c2.86-2.17 2.2-4.61-1.25-4.61-2.4762 0-3 0.40741-3 2.3333 0 3.7733 1.3347 4.4876 4.25 2.2746zm18.25-1.1913c0-1.2263-0.81042-2.0318-2.25-2.2362-2.4848-0.35289-3.344 3.2153-1 4.1529 2.0551 0.82203 3.25 0.11733 3.25-1.9167zm-8.5-4.451c0-2.359-2.64-3.724-4.2-2.169s-0.19 4.2 2.17 4.2c1.37 0 2.03-0.656 2.03-2.031zm14-1.969c0-0.55-0.675-1-1.5-1s-1.5 0.45-1.5 1 0.675 1 1.5 1 1.5-0.45 1.5-1zm-5-0.41821c0-0.23002 0.27314-1.13 0.60699-2 0.45784-1.1931-0.0336-1.5818-2-1.5818-2.4528 0-3.4906 1.783-1.9403 3.3333 0.72 0.728 3.33 0.922 3.33 0.248zm-34.39-6.793c4.61-8.917 28.05-17.834 43.39-16.506 2.4366 0.21103 2.5075 0.02943 2.7963-7.1582 0.26836-6.6787 0.13105-7.3113-1.4548-6.7028-0.96311 0.36958-3.7965 0.93633-6.2963 1.2594-2.4999 0.32311-5.2698 1.2147-6.1554 1.9812-1.1606 1.0046-2.2958 1.1331-4.066 0.46005-10.758-4.0903-28.089 9.8214-32.348 25.967-1.8471 7.002 0.65462 7.4253 4.1328 0.69916zm42.062-2.3065c6.8766-7.1768 4.8621-10.565-5.0568-8.5062-3.6936 0.76679-6.1121 0.78517-8.017 0.06092-4.5912-1.7456-5.1625-0.05593-1.0697 3.1635 1.3903 1.0936 3.4245 3.7459 4.5203 5.8939 2.5682 5.0341 4.3199 4.9227 9.6232-0.61208zm28.3-0.232c-0.0141-0.4125-1.5549-3.1499-3.424-6.0832-3.3584-5.2704-4.2382-8.7232-6.2821-24.655-0.99254-7.7365-3.5244-8.8298-5.382-2.324-0.67719 2.3716-1.8924 5.093-2.7006 6.0475-1.8179 2.1472-1.1326 16.101 1.0935 22.265l1.4446 4 5.0284-0.33212c2.8883-0.19077 5.313 0.12842 5.6972 0.75 0.75135 1.2157 4.5649 1.4956 4.5252 0.33212zm-75.564-10c4.7026-8.8457 17.356-18.183 24.7-18.228 10.242-0.0623 12.796-1.0214 14.803-5.559 1.0367-2.3437 2.8304-5.2067 3.9858-6.3621 2.8603-2.8603 2.6903-6.4846-0.39917-8.5089-1.375-0.90094-2.5-2.506-2.5-3.5669 0-1.0608-1.575-3.4584-3.5-5.328-1.925-1.8695-3.5-4.0389-3.5-4.8207 0-1.4251-4.4768-4.1651-8.8169-5.3963-3.2401-0.91918-9.4796 3.4143-11.823 8.211-1.7819 3.648-2.0761 3.8126-6.9608 3.8945-2.8052 0.04705-5.881 0.38514-6.8352 0.7513-1.0934 0.41957-4.114-0.66469-8.1686-2.9322-12.681-7.0915-23.866-4.4498-30.081 7.1045-4.8635 9.0421-4.568 11.892 1.1661 11.246 8.1879-0.9229 8.6132 3.9885 1.013 11.698-4.6174 4.6837-4.915 5.2872-3.9049 7.9194 0.47745 1.2442 1.7696 1.4256 6.8052 0.95537 6.2503-0.58366 10.317 0.57964 13.761 3.9365 7.0754 6.8965 17.832 9.5443 20.255 4.9859zm-667.06 94.232c-0.32037-0.83488-0.0315-2.8483 0.64201-4.4742 1.1008-2.6575 0.96941-3.2594-1.3002-5.9566-10-11.89-0.86-32 14.56-32.04 2.06-0.01 3.75-0.46 3.75-1.01s-0.41547-1-0.92327-1c-0.50781 0-2.334-1.187-4.0582-2.6378-2.7937-2.3507-3.397-2.4976-5.5426-1.3493-2.762 1.4782-5.9883-0.23526-5.0495-2.6818 0.73403-1.9128-0.92287-5.7832-3.9119-9.1379-1.4082-1.5804-3.1882-3.7322-3.9557-4.7818-2.0303-2.7766-2.5655-1.5539-2.6807 6.1239-0.37682 25.118-24.141 37.404-38.487 19.897-3.3993-4.1484-6.5609-5.5849-7.8175-3.5518-0.86451 1.3988-7.505-2.1938-7.5411-4.0799-0.0391-2.0398 5.3993-6.3786 9.1764-7.3212 3.3306-0.83109 4.3334-2.05 5.1253-6.2297 0.33864-1.7875 1.527-5.2503 2.6407-7.6951 1.12-2.44 2.03-4.863 2.03-5.379 0-4.7629 11.75-10.517 19.75-9.6722 7.0318 0.74279 7.6086 0.08192 4.3037-4.9316-2.3851-3.6181-5.6153-5.4855-9.5693-5.532-4.32-0.05-8.56-2.744-14.23-9.035-14.06-15.615-8.26-34.268 14.16-45.513 2.93-1.468 4.12-6.632 2.83-12.267-1.2-5.2467-0.93-6.22 1.7-6.22 2.5566 0 3.5771 1.5529 6.0414 9.1933l2.1588 6.6933 5.6816 1.1256c8.4439 1.6728 8.6391 1.7589 12.511 5.519 9.8717 9.5873 7.7503 18.497-8.3246 34.964-10.38 10.631-13.94 16.505-10.01 16.505 0.55 0 1 0.9 1 2 0 4.2413 3.742 2.2434 6.3119-3.37 6.8238-14.905 32.515-26.809 38.157-17.68 0.85615 1.3853 7.7354 2.1597 11.031 1.2417 3.5076-0.97703 3.941-2.5578 0.82293-3.0017-2.6146-0.3723-6.965-5.7959-7.8634-9.8033-0.35594-1.5877-1.3276-4.405-2.1592-6.2608-3.79-8.455 0.11-22.126 6.31-22.126 3.5686 0 7.4454-1.8173 11.316-5.3046 9.6272-8.674 21.672-5.8372 28.134 6.626l3.4194 6.595 2.5107-1.687c1.38-0.927 4.99-1.921 8.01-2.208l5.5-0.521 0.51388-5.7742c1.5711-17.654 43.842-21.326 57.282-4.9758 2.7238 3.3135 7.4017 2.9821 22.323-1.5813 11.36-3.4741 22.492 3.2988 20.901 12.716-0.77008 4.5581 0.46994 5.2103 5.9473 3.1278 17.311-6.5815 34.562 4.5033 26.671 17.138-1.6242 2.6007-1.4186 4.8934 0.86186 9.6134 1.1 2.2767 2 4.5847 2 5.1288 0 2.5903 2.2791 1.8041 5.6788-1.9589 8.8732-9.8216 23.438-5.503 30.864 9.1512 1.3003 2.5659 3.0412 4.9252 3.8688 5.2428 0.82757 0.31757 2.2321 3.0795 3.1211 6.1376 1.9773 6.8017 3.7448 6.3212 2.9048-0.78968-1.0499-8.8871-2.3079-11.352-9.1301-17.889-15.403-14.759-12.167-27.11 9.4807-36.187 10.036-4.2077 11.276-5.0621 12.999-8.9526 2.3766-5.3673 9.3568-1.6936 9.4689 4.9834 0.0826 4.9241 0.9507 5.9992 5.5295 6.848 22.74 4.214 19.21 33.521-4.03 33.521-1.3828 0-13.054 5.2003-14.515 6.4671-0.14591 0.12656-0.95462 2.8857-1.7971 6.1315-0.8425 3.2458-2.6421 8.3324-3.9991 11.304-4.5168 9.89 0.6768 6.3582 5.9848-4.0697 5.7999-11.394 24.164-15.669 33.027-7.688 1.7954 1.6167 3.5129 0.85131 4.1959-1.87 0.37622-1.499 1.9598-4.7371 3.519-7.1958 2.52-3.981 2.83-5.377 2.83-12.74 0-11.075 6.18-18.339 15.61-18.339 7.3402 0 20.655-9.2607 22.86-15.899 1.6255-4.8939 1.6717-4.932 6.835-5.6382 2.8592-0.39105 6.2892-1.1237 7.6224-1.6281 1.9455-0.73609 3.3896-0.31679 7.3164 2.1243 5.7492 3.5739 6.4663 3.6609 9.1952 1.1164 8.5325-7.9559 28.48-7.9676 39.637-0.023304 3.6748 2.6167 7.0948 2.453 11.522-0.55175 4.2219-2.8651 8.207-3.1708 12.486-0.95796 2.404 1.2431 5.2534 1.4293 14.7 0.96036l11.71-0.5813 7.5 3.7893c6.7933 3.4326 10.801 7.1932 12.228 11.474 0.95526 2.8658 4.5779-1.6641 5.2236-6.5317 1.2279-9.2567 3.2528-10.594 8.7635-5.7874 1.8066 1.5758 4.4098 3.2091 5.7848 3.6295 24.425 7.4685 20.126 47.131-5.9464 54.865-5.94 1.762-6.47 3.641-1.03 3.641 5.048 0 10.789-3.0054 13.504-7.0686 1.0813-1.6187 2.727-3.1874 3.6571-3.486 2.21-0.709 8.81-12.543 8.81-15.798 0-1.3907 0.40015-2.7758 0.88922-3.0781 0.48907-0.30226 1.1968-1.775 1.5727-3.2728 3.9406-15.701 13.773-24.336 31.038-27.26 3.85-0.65209 8.8668-1.5235 11.149-1.9365 8.1354-1.4725 22.004 4.233 24.41 10.042 1.7007 4.1057 0.3561 6.1146-4.7712 7.1286l-4.0093 0.79287-0.53095 8.5106c-1.3929 22.327-18.41 31.882-46.104 25.889l-8.8567-1.9168-1.7927 2.2139c-0.98597 1.2176-2.963 2.6588-4.3933 3.2026-2.0152 0.76619-3.7294 3.7565-2.3506 4.1007 0.1375 0.03433 2.5 0.3124 5.25 0.61793 18.335 2.0371 28.077 18.928 21.394 37.095-5.2861 14.368-5.9848 25.026-1.8937 28.887 1.65 1.5573 3 3.358 3 4.0014 0 3.1724-5.6363 1.5316-9.6807-2.8181-4.19-4.51-8.01-6.85-11.17-6.85-10.044 0-22.152-14.154-19.483-22.776 1.3659-4.4118 1.0474-20.484-0.41568-20.973-0.92538-0.30944-1.25 1.5124-1.25 7.0153 0 6.5641-0.32962 7.8893-2.819 11.333-1.5504 2.145-3.5984 5.0936-4.551 6.5524l-1.732 2.6523 5.801 4.4848c6.41 4.9556 10.82 11.574 14.395 21.606l2.2795 6.3951-2.7991 2.2319c-3.0075 2.3981-5.16 2.2856-9.7834-0.51148l-2.7088-1.6387 3.4588-1.2507c4.1456-1.499 4.1693-1.7431 0.85326-8.7527-3.4852-7.3672-6.7583-8.9948-9.7104-4.8288-3.433 4.8448-8.4038 9.1919-12.656 11.068-2.1958 0.96881-3.7552 1.9988-3.4652 2.2888 0.74531 0.74532-10.268 2.9635-15.063 3.0338-6.7062 0.0983-16.853-3.2406-19.485-6.4118-1.9581-2.3593-3.1654-1.8765-8.0813 3.2316-14.956 15.541-49.69 15.909-53.984 0.57203-0.92468-3.3026-1.955-4.7782-3.856-5.5221-1.4268-0.55833-3.3756-1.4167-4.3306-1.9076-2.397-1.2319-5.5064-1.1175-6.3412 0.23315-2.4817 4.0154-23.955-2.3879-26.863-8.0104-0.81755-1.581-3.0738-3.811-5.0139-4.9557-4.5396-2.6784-7.2479-7.1958-8.687-14.49-0.92518-4.689-1.6216-6.0094-3.5577-6.7455-2.1273-0.80879-5.3432-6.3355-7.6055-13.071-2.114-6.2933-16.883-2.1779-19.764 5.5074-4.6818 12.488-23.123 18.081-37.587 11.398-3.0557-1.4118-7.6728-10.261-7.051-13.514 0.47735-2.4971-0.9715-7.2543-2.204-7.2367-1.1192 0.01602-7.1459 12.498-7.1177 14.742 0.019 1.5163-0.56293 2.25-1.7847 2.25-2.017 0-7.9006 5.6198-6.9152 6.6052 0.34432 0.34433 2.0662 0.12402 3.8263-0.48957 7.7185-2.6907 19.902 1.6758 19.902 7.1327 0 0.55858 1.0125 2.6437 2.25 4.6336 1.4942 2.4026 2.2541 5.1993 2.2623 8.3252 0.0103 3.9436 0.53749 5.249 3.25 8.0476 4.724 4.8739 3.961 9.7661-0.98307 6.3032-2.7592-1.9326-9.3724-1.9471-17.279-0.0379-21.406 5.1687-35.069-5.1869-25.095-19.02 5.5693-7.7238 6.0599-10.561 1.299-7.5128-1.2125 0.77629-4.5574 2.7003-7.4331 4.2756-4.3711 2.3945-5.4024 3.5098-6.2886 6.8007-1.2271 4.557-1.2071 4.5486-4.7734 2.001-2.5455-1.8184-3.1332-1.8508-9.7095-0.53582-4.3414 0.86811-9.4236 1.1659-13.381 0.784-5.8657-0.56598-6.522-0.42925-8.122 1.6919-2.72 3.58-5.01 2.01-5.01-3.42 0-4.6556 1.2298-6.4475 3.2938-4.7995 1.0769 0.85985 12.487 3.2091 15.586 3.2091 0.66871 0 2.2874-1.1563 3.5972-2.5695 2.2297-2.4058 2.5305-2.4718 4.7225-1.0355 2.8404 1.8611 25.602-7.4009 27.171-11.056 0.57115-1.3303-3.5345-0.39157-7.4482 1.703-4.7171 2.5245-15.9 4.694-20.171 3.9131-4.7363-0.8661-6.7075-0.34294-8.5943 2.281-1.1806 1.6418-2.1844 1.7843-8.3128 1.1805-4.7716-0.47018-7.8176-0.29548-9.6573 0.55386-1.478 0.68238-4.1548 1.9419-5.9486 2.799-1.8317 0.87522-4.7955 3.8697-6.7613 6.8312-8.5163 12.83-21.048 16.841-31.158 9.9712-6.03-4.09-11.32-2.09-11.32 4.3 0 7.3657-5.4262 9.8465-14.001 6.4009-6.3376-2.5467-6.4452-2.5417-11.999 0.55608-21.33 11.897-33.309 11.878-38.157-0.0591-2.2762-5.6051-2.2459-7.5552 0.19082-12.302 4.238-8.255 2.152-9.5124-10.002-6.0288-3.0074 0.86203-7.8658 1.5673-10.797 1.5673-4.8721 0-5.4745 0.25644-7.0321 2.9937-2.5899 4.5515-7.126 2.818-5.8569-2.2383 0.52723-2.1006-0.10635-2.4804-8.4642-5.0735-4.9687-1.5416-9.6749-3.0488-10.458-3.3494-2.9574-1.1349-1.2293 1.908 4.2247 7.4389 13.149 13.335 9.3325 23.317-9.6666 25.283-8.75 0.9-16.97 3.79-16.97 5.96 0 1.585-4.0088 1.1204-4.6453-0.53828zm106.38-14.79c9.9919-6.8037 18.591-9.0477 23.84-6.2209 5.2046 2.8029 7.1842 1.0751 6.5967-5.7576-0.0847-0.98552 0.56771-2.8934 1.4499-4.2398 1.8433-2.8133 1.6426-2.9517-5.7004-3.9306-2.6221-0.34955-5.8355-0.12144-7.5 0.53237-1.6017 0.62918-7.2015 1.2603-12.444 1.4025-20.011 0.54284-31.517 8.7651-26.322 18.811 3.3556 6.489 9.9612 6.2926 20.079-0.59704zm346.19-5.9033c1.8787-0.57634 5.2537-2.7142 7.5-4.7509 2.2463-2.0366 4.8755-3.9895 5.8428-4.3396 2.3516-0.8513 4.5372-5.5828 3.0138-6.5244-0.61262-0.37862-1.4236-1.9224-1.8021-3.4307-1.6612-6.619-13.853-11.627-16.458-6.7606-1.6828 3.1444-4.647 4.1775-14.391 5.0155-13.503 1.1614-26.224 6.901-21.64 9.7638 1.0899 0.68065 3.1097 3.4636 4.4884 6.1844 3.5922 7.0888 18.899 9.305 33.446 4.8425zm54.526-8.3237c7.3454-3.0691 18.404-17.013 15.665-19.753-0.51632-0.51632-1.945-1.4491-3.1748-2.073-4.5386-2.3021-4.7759-4.487-0.86472-7.9632 11.107-9.872 12.613-17.455 4.9357-24.855-5.7745-5.5659-6.7409-5.8295-7.5741-2.0662-2.3203 10.48-6.1264 15.747-14.653 20.279-3.4519 1.8347-8.6886 4.9412-11.637 6.9033-10.923 7.269-11.163 7.3693-18.751 7.8563-7.7504 0.49739-8.8657 1.0887-5.1382 2.724 1.2375 0.54292 4.5918 4.5303 7.454 8.8608 8.0739 12.216 20.063 15.8 33.738 10.086zm-334.84-3.57c5.639-2.4135 7.7481-3.9488 10.197-7.423 1.6981-2.4091 4.892-5.5193 7.0975-6.9116 8.9073-5.623 9.425-34.184 0.72302-39.885-4.65-3.047-3.75-9.68 1.3-9.68 5.4837 0 7.8213-6.5007 4.058-11.285-8.15-10.366-29.99-12.288-29.99-2.64 0 2.2132-0.69035 5.359-1.5341 6.9906-1.3868 2.6818-1.3771 3.4213 0.10104 7.7003 4.6115 13.35 2.3041 27.897-5.437 34.278-3.4594 2.8515-3.4984 2.9561-1.1077 2.9708 4.3385 0.0268 5.6099 1.4352 4.0041 4.4357-1.1991 2.2406-1.1633 3.0383 0.27161 6.0474 0.90913 1.9065 1.4766 4.0367 1.2611 4.734-0.21553 0.69722-0.66098 2.497-0.98988 3.9995-0.36414 1.6634-1.7656 3.3356-3.5835 4.2757-10.813 5.5918 1.2131 7.6996 13.624 2.3878zm-77.36-1.95c5.0685-1.4076 4.7976-2.0672-2.8078-6.8357-8.1584-5.1153-8.8559-5.147-7.9726-0.3617 1.2748 6.9054 4.376 8.976 10.78 7.1974zm-22-2.6479c4.8399-1.7266 7.6345-7.256 3-5.9358-10.598 3.0192-25.287 3.7026-29.769 1.3851-3.7154-1.9213-15.543-2.0746-14.821-0.19214 0.26083 0.67972 1.4565 1.4715 2.6571 1.7596 1.2006 0.28804 4.8828 1.2924 8.1828 2.232 12.887 3.669 21.951 3.8905 30.75 0.75126zm80.5 0.455c2.3375-1.2381 4.25-2.8143 4.25-3.5028 0-1.7166-0.377-1.6142-4.5951 1.2483-2.0262 1.375-4.2962 2.5-5.0444 2.5-0.74825 0-1.3604 0.45-1.3604 1 0 1.5833 2.1627 1.1842 6.75-1.2455zm246.75-0.2492c2.2-0.11938 6.475-1.4385 9.5-2.9313 7.2926-3.5989 16.67-6.5395 21-6.585 15.34-0.1611 15.46-4.6934 0.15929-6.0225-5.5457-0.48171-11.338-1.5081-12.871-2.2809-1.5334-0.77277-4.0219-1.7008-5.53-2.0624-10.519-2.5219-23.2-28.489-19.114-39.139 0.73451-1.9141 8.1504-5.4598 13.356-6.3855 2.9819-0.53036 3.545-1.0648 3.8041-3.6107 0.46952-4.6133 3.4065-11.843 5.4007-13.295 8.374-6.0953-7.995-7.8221-24.639-2.5992-4.364 1.3694-11.339 2.9534-15.5 3.5199-16.214 2.2077-18.492 4.274-18.308 16.61 0.11 7.839 0.41 8.271 5.73 8.271 8.4561 0 10.804 6.4593 4.7735 13.134l-3.74 4.1398 0.12976 8.8166c0.14321 9.7308 1.3316 12.603 8.4447 20.41 2.0046 2.2 3.9455 4.9709 4.3132 6.1576 0.94881 3.0623 12.829 6.1432 17.592 4.5625 0.825-0.27376 3.3-0.59542 5.5-0.7148zm-264.84-2.02c13.63-0.46 20.34-4.5 20.34-12.27v-3.5098l-6.6152 0.61773c-3.6383 0.33976-7.1805 1.0869-7.8714 1.6603-6.992 5.8029-25.83 3.8931-29.515-2.9921-0.58-1.1-1.86-2-2.84-2-1.926 0-6.1925-4.111-8.088-7.7931-2.8803-5.5953-15.486-1.346-13.844 4.6665 4.0344 14.767 17.832 23.931 33.78 22.435 3.025-0.28381 9.6199-0.65297 14.655-0.82037zm-59.427-8.8135c8.5259-0.30114 9.2994-1.5376 6.2379-9.9719-1.36-3.74-2.47-7.68-2.47-8.76 0-1.07-0.43-1.95-0.96-1.95-3.8418 0-6.5203-8.5257-3.473-11.055 5.2969-4.396 5.3768-7.9958 0.43406-19.565-6.3644-14.896-5.6242-21.973 2.75-26.291 3.2992-1.7011 2.7899-4.7215-1.2361-7.3306-3.0827-1.9978-3.4186-2.6262-2.9034-5.431 2.5318-13.781-6.4493-17.418-23.111-9.3572-2.2 1.0643-5.6423 2.1931-7.6495 2.5085-10.305 1.6192-5.9895 23.521 5.2297 26.542 5.8953 1.5874 12.578 9.4193 10.489 12.292-3.2924 4.5278-3.6921 6.7801-2.5453 14.345 1.3307 8.7786 0.0748 11.794-6.4341 15.449-13.525 7.594-15.201 10.944-10.344 20.671 3.66 7.3285 9.7238 9.5712 23.254 8.6004 3.85-0.27625 9.5776-0.59332 12.728-0.70459zm-52.41-4.68c0.22062-2.4374 1.4862-4.7145 4.1682-7.5 3.3673-3.4973 4.547-6.0002 4.1302-8.7634-0.0633-0.41988-1.7451-0.0824-3.7373 0.75-7.4577 3.116-17.781 1.4108-24.135-3.9867-5.17-4.385-10.25-5.382-10.25-2.01 0 3.0439 11.481 16.394 14.179 16.487 0.37322 0.0128 1.2732 0.59331 2 1.2901 8.7372 8.3767 13.11 9.5735 13.638 3.7331zm196.43-3.4381c4.19-5.2513 5.3038-8.1978 3.7889-10.023-0.85479-1.03-1.0434-2.9779-0.58457-6.0375 0.55086-3.6734 0.29218-5.058-1.3851-7.4135-1.14-1.591-2.07-3.377-2.07-3.966 0-0.58926-1.575-2.5046-3.5-4.2563-5.4579-4.9666-4.34-8.5201 4.2208-13.418 5.9058-3.3787 6.8807-8.2402 3.2922-16.416-2.24-5.117-3.01-8.383-3.01-12.825 0-13.005-15.439-11.932-38.47 2.6739-2.5233 1.6002-6.088 3.1909-7.9217 3.5349-8.8284 1.6562-6.9466 4.0827 3.2226 4.1557 21.523 0.15433 36.373 18.674 21.186 26.422l-4.0636 2.0731 2.5689 4.3835c3.9846 6.7991 4.6686 10.182 4.5342 22.428-0.119 10.844-0.033 11.352 1.8392 10.862 1.0802-0.28248 3.4581-0.16005 5.2842 0.27208 6.4815 1.5338 8.1877 1.1563 11.063-2.4477zm-87.76 1.44c1.2295 0 3.9435-1.1591 6.0311-2.5758s4.625-2.3589 5.6386-2.0939c5.4085 1.4144 1.7102-1.468-4.9245-3.8381-29.787-10.64-44.738-23.021-51.791-42.89-2.6204-7.3814-2.7243-12.287-0.20684-9.7698 0.63 0.643 1.74 1.168 2.46 1.168 1.7971 0 1.6391-2.6559-0.2-3.3616-0.82-0.316-1.5-1.489-1.5-2.607 0-1.647-0.65-2.031-3.43-2.031-8.3627 0-9.5113 10.692-2.5175 23.435 4.5472 8.2855 4.8178 13.047 1.0549 18.565-5.4019 7.9204-2.5785 10.819 9.2989 9.5471 7.7341-0.82825 11.332 0.64561 14.442 5.9163 1.1476 1.9451 2.7755 3.5366 3.6175 3.5366 0.84197 0 3.2238 1.5295 5.293 3.3989 4.0046 3.6179 6.9794 4.6419 11.619 3.9993 1.58-0.22 3.88-0.4 5.11-0.4zm329.63-3c2.1781-2.2 4.451-4 5.0508-4 0.74468 0 0.87158-1.9821 0.40012-6.25-1.3079-11.84-1.9351-12.582-6.9735-8.2488-1.6 1.375-3.26 2.499-3.68 2.499-0.42135 0-2.0389 1.9944-3.5945 4.4319-1.6379 2.5665-5.2386 6.0078-8.5546 8.1761-6.8899 4.505-6.3898 6.1212 2.0594 6.6555 3.1168 0.19709 6.9397 0.44343 8.4953 0.54743 2.1143 0.14134 3.8283-0.82084 6.7886-3.8109zm18.533 0.18721c2.5257-1.3517 3.8535-4.3405 5.2331-11.779 1.0284-5.5449 0.94065-8.2248-0.50033-15.286-0.26689-1.3078-2.8402-4.9078-5.7185-8s-5.8563-6.8596-6.6178-8.3721c-4.2679-8.4766-6.9953 5.1462-3.6619 18.29 0.76162 3.0031 1.6964 7.7101 2.0772 10.46 0.38082 2.75 1.5577 6.4882 2.6152 8.3072 2.5467 4.3802 2.5183 6.5818-0.0762 5.9034-2.326-0.60825-3.8519 1.1456-1.9952 2.2931 1.3104 0.80987 5.3059-0.0297 8.6444-1.8164zm-42.208-4.0864c4.0002-1.89 7.5102-4.5302 10.095-7.5932 2.4444-2.8967 5.974-5.6127 9.2126-7.0891 3.8015-1.733 5.25-2.9486 5.25-4.406 0-2.9254-4.0934-2.6066-7.0586 0.5498-5.2533 5.5919-8.5211 6.7806-18.841 6.8537-12.013 0.08508-19.019-2.925-28.011-12.034l-4.4102-4.4676 2.1602-3.8435c3.4062-6.0604 1.9238-6.8409-4.8597-2.5586-4.9632 3.1331-5.1956 6.2755-1.329 17.969 5.8868 17.804 21.112 24.499 37.791 16.619zm-280.05-6.1c4.2598-8.4338 3.7877-17.562-1.588-30.701-1.7115-4.183-1.8871-5.4906-0.89739-6.6831 1.6334-1.9681-1.1529-6.3899-4.5664-7.2467-4.4296-1.1117-6.5047 2.0262-5.7501 8.6952 0.55527 4.908 0.34 6.115-1.5454 8.6651-4.2059 5.6887-3.9313 10.683 0.74968 13.638 5.2606 3.3209 6.2596 7.1858 3.1985 12.374-1.3405 2.272-1.7633 3.8333-1.0981 4.055 0.59494 0.19831 2.0816 1.1702 3.3037 2.1599 2.9344 2.3761 5.1739 1.0212 8.1935-4.957zm106.71-2.3955c-2.9682-3.1596-1.9078-4.9789 2.4279-4.1656 2.8693 0.53828 3.5769 0.2254 5.4548-2.4119 5.4646-7.6743-0.9303-10.58-10.057-4.5689-2.9732 1.9581-6.1974 3.8114-7.1648 4.1185-2.3273 0.73866-2.2829 1.0207 1.4661 9.3095l3.2251 7.1305 3.4778-3.4778 3.4778-3.4778-2.3077-2.4564zm-121.28-0.86301c0.32044-2.7762-0.3718-3.233-3.2346-2.1345-1.6142 0.61944-2.1462 3.4953-0.88055 4.7609 1.4818 1.4818 3.8127-0.006 4.1152-2.6265zm354.57 0.869c5.684-2.3749 9.0359-7.2031 12.615-18.17 0.70709-2.1669 2.1202-5.013 3.1402-6.3247 2.5671-3.3011 2.38-3.8687-1.8588-5.6399-7.0604-2.95-9.062-6.7458-5.8184-11.034 3.5957-4.754-2.1536-13.689-9.5176-14.792-22.64-3.39-37.95-2.831-37.95 1.384 0 2.744 3.97 8.967 5.71 8.967 2.0865 0 8.9153 7.5421 11.771 13 1.2948 2.475 4.8133 6.7938 7.819 9.5974 6.1428 5.7297 8.3388 11.934 7.1143 20.1-0.73932 4.9301 0.7028 5.5327 6.9723 2.9131zm-248.01-3.593c0.69-0.689-0.59-1.017-3.97-1.017-8.59 0-11.6-3.462-12.2-14.061-0.53-9.319-1.1-10.186-6.21-9.296-6.236 1.0871-9.8449 6.8137-4.75 7.5373 1.8073 0.25668 2.3111 1.0573 2.5604 4.0696 0.19068 2.304 0.82471 3.75 1.6442 3.75 0.73363 0 2.7593 1.3315 4.5014 2.9589 9.1648 8.5612 14.251 10.234 18.427 6.0585zm-113.98-0.607c0.82-2.143-0.1-3.41-2.49-3.41-2.4346 0-3.7077 2.881-1.8053 4.0856 2.1035 1.3319 3.6127 1.0943 4.292-0.67585zm223.09-1.3579c0.35614-1.6215 1.9839-4.6297 3.6172-6.685 4.0681-5.1191 3.5232-6.793-2.3343-7.1704-7.4379-0.4793-9.0378-3.2431-8.6096-14.872 0.51062-13.867 3.3284-16.725 18.107-18.364 4.5273-0.50226 11.157-1.6143 14.732-2.4713 3.575-0.85694 7.625-1.8248 9-2.1509 7.7963-1.8487 8.4466-7.7468 2.3059-20.915-2.6221-5.6231-14.417-6.9549-17.667-1.9948-5.1207 7.8151-16.422 15.727-24.178 16.926-10.544 1.6303-12.844 3.7236-11.957 10.886 0.7615 6.155-0.19885 9.1707-4.8676 15.285-7.5668 9.9099-5.7668 19.524 3.8755 20.7 6.21 0.755 11.49 4.599 11.49 8.356 0 5.4032 5.3934 7.4566 6.4886 2.4703zm-234.49-2.93c0-2.3992-2.5254-4.5185-4.4873-3.7657-1.5318 0.58781-2.0699 3.7528-0.84606 4.9766 1.52 1.52 5.33 0.654 5.33-1.211zm316 0.04422c0-2.5993-0.9737-3.2511-3.1315-2.0963-2.74 1.468-2.35 3.93 0.63 3.93 1.7576 0 2.5-0.54444 2.5-1.8333zm10.82-1.416c0.3855-3.3503-3.106-3.946-4.7812-0.81574-1.6916 3.1608-1.2236 4.2203 1.7148 3.8822 2.16-0.24853 2.8179-0.90645 3.0664-3.0664zm-402.18-3.479c2.3166-1.4653 2.2447-2.3529-1.0122-12.506-1.4831-4.6233-1.4611-4.8042 0.92876-7.6444 2.91-3.472 3.11-5.121 0.59-5.121-2.4664 0-4.6776 5.1841-7.2034 16.888-1.1143 5.1635-2.4428 10.167-2.9521 11.119-2.0784 3.8836 0.19356 3.2387 9.6393-2.736zm381.86 4.729c0.33992-0.55-0.30852-1-1.441-1-1.13 0-2.06 0.45-2.06 1s0.64844 1 1.441 1c0.79254 0 1.7191-0.45 2.059-1zm-318.5-5.277c0-3.903 1.8073-6.8063 7.6781-12.334 4.2485-4.0002 4.3187-4.1666 2.5943-6.1445-3.1386-3.5999-6.9654-3.7383-8.7352-0.31585-2.3 4.451-5.31 6.071-11.26 6.071-6.8945 0-6.7899 0.99794 0.97251 9.2748 7.0802 7.5495 8.75 8.2075 8.75 3.4477zm23.5 0.277c0-3.1083-4.1972-4.1346-6.1253-1.4978-1.9497 2.6664-0.56576 4.6489 3.0029 4.3016 2.58-0.251 3.12-0.736 3.12-2.804zm290.21-0.373c-0.58-1.772-4.71-2.017-4.71-0.28 0 0.81742 0.5625 1.6824 1.25 1.9222 1.8297 0.63823 3.8924-0.33988 3.4639-1.6426zm18.79-3.127c0-2.5348-3.9718-3.3189-4.876-0.96263-0.88995 2.3192 0.19976 3.629 2.7203 3.2698 1.39-0.197 2.16-1.021 2.16-2.307zm18.5 0.5c0-1.4667-0.66667-2-2.5-2-2.9413 0-3.1643 0.77526-0.75 2.608 2.45 1.858 3.25 1.707 3.25-0.608zm-336.11-1.373c1.62-1.951 0.29-4.627-2.3-4.627-2.66 0-4.59 1.767-4.59 4.2 0 2.2125 5.1483 2.5311 6.8948 0.42675zm291.29-1.877c2.924-1.7875 5.4761-3.6166 5.6713-4.0646 0.19519-0.44804 1.3694-1.2003 2.6094-1.6718 1.3431-0.51066 2.4857-2.0004 2.8265-3.6854 0.77573-3.8356 4.4626-7.626 6.8185-7.0099 1.0295 0.26922 5.0692-0.59227 8.9771-1.9144s8.0747-2.4108 9.2595-2.4192c6.4515-0.04586 5.8935-4.6164-1.396-11.435l-5.0902-4.7613-7.1798 0.39992c-8.4294 0.46952-19.273 4.8879-20.293 8.269-0.33908 1.1234-1.4217 2.9426-2.4057 4.0426-2.0398 2.2801-3.9653 8.5711-3.9791 13-0.005 1.65-0.90763 4.4734-2.0056 6.2742-4.8039 7.8792-2.1083 10.047 6.1873 4.9758zm14.64 0.91713c0.22-1.124-0.35-1.667-1.75-1.667-1.14 0-2.07 0.6-2.07 1.333 0 3.0627 3.2392 3.3455 3.8233 0.3338zm20.68-0.167c0-2.6548-3.0958-3.1537-3.7619-0.60633-0.61776 2.3623 0.0925 3.2856 2.2132 2.8772 0.85-0.164 1.55-1.186 1.55-2.271zm9.9058-9.1562c0.82873-8.0889 0.20266-8.8987-6.7092-8.6778-9.3931 0.30018-17 4.2881-11.035 5.7852 1.5119 0.37945 3.357 1.5582 4.1003 2.6193 0.74328 1.0612 1.9809 1.9294 2.7503 1.9294 0.76939 0 3.0567 1.125 5.0828 2.5 5.0151 3.4034 5.0378 3.3872 5.8106-4.1562zm-328.35 1.8119c2.84-2.299 2.01-5.156-1.49-5.156-2.708 0-5.0928 3.1864-4.175 5.5781 0.747 1.9466 2.9408 1.7831 5.6644-0.42238zm305.39 0.93448c0.96-1.563-0.58-4.09-2.5-4.09-2.2567 0-3.1558 1.3055-2.3483 3.4098 0.65722 1.7127 3.9191 2.1713 4.8405 0.68048zm-335.86-6.079c2.3991-0.0085 3.3652-0.62553 4.3235-2.761 2.343-5.2212 8.3908-13.2 11.727-15.472 8.3254-5.6682-5.1898-8.454-15.952-3.288-12.659 6.0768-18.239 24.02-6.8853 22.143 2.0335-0.3362 5.0875-0.61623 6.7867-0.62228zm34.096-6.9178c0.27425-1.0487 2.2988-3.3534 4.4991-5.1216 6.0281-4.8443 1.1566-7.4524-13.136-7.0327-2.7402 0.08047-7.4924 4.1538-9.6383 8.2615-2.0295 3.8847-1.8661 4.0851 2.8393 3.4825 2.3375-0.29933 6.275 0.0408 8.75 0.75585 6.1961 1.7901 6.1265 1.7937 6.6859-0.34548zm20.31-5.528c0-7.8247 1.0651-9.1599 11.231-14.078 10.255-4.9618 11.076-5.5254 15.026-10.314 8.8984-10.789 0.1402-16.266-18.917-11.832-10.211 2.3761-18.849-0.43966-21.373-6.9666-1.05-2.7119-4.85-3.3668-16.47-2.8365-19.97 0.9115-23.03 2.2735-25.47 11.35-1.4132 5.2481-3.8607 7.0985-10.677 8.072-10.79 1.541-13.08 3.5769-9.3535 8.3142 1.1 1.3984 2 3.23 2 4.0701 0 0.84015 1.5321 2.0816 3.4047 2.7587 1.9767 0.71477 3.2064 1.7481 2.9318 2.4636-1.088 2.8354 2.008 2.3562 5.5703-0.86218 10.023-9.055 25.514-10.274 34.896-2.7457 2.8161 2.2597 5.127 3.1153 9.6972 3.5901 3.7438 0.38895 6.7521 1.3182 8 2.4713 1.1 1.0164 3.2375 2.3168 4.75 2.8898 2.2828 0.86486 2.75 1.6407 2.75 4.5666 0 1.937 0.45 3.523 1 3.523s1-1.9957 1-4.4349zm296.44-15.097c1.07-0.807 2.98-1.468 4.25-1.468 4.5019 0 2.2275-1.8663-3.083-2.5298-8.7247-1.0901-12.329 0.98986-6.8581 3.9578 3.3844 1.8361 3.3174 1.8356 5.6911 0.04017zm-37.125-1.0453c1.5488-0.33595 4.1215-0.07008 5.717 0.59081 3.9784 1.6479 11.93-0.32372 17.695-4.3878 7.3464-5.1782 21.361-4.5113 45.772 2.1782 3.85 1.0551 8.8297 2.1978 11.066 2.5395l4.066 0.62117 1.7998-6.0083 1.7998-6.0083-2.6867-4.0599c-6.5099-9.8371-37.289-14.822-46.908-7.5968-5.5397 4.1607-11.559 3.7607-18.346-1.2192-16.498-12.105-41.871-3.5859-35.76 12.007 1.3578 3.4648 2.4688 7.4893 2.4688 8.9433 0 3.8972 3.5026 4.5285 13.316 2.3999zm-582.97 127.37c-2.5265-1.2703-4.9686-3.5441-6.2445-5.8144-3.0044-5.3457-6.5396-6.5516-13.809-4.7107-7.3117 1.8517-17.29 0.96722-17.304-1.5338-0.007-1.3-5.904-5.73-7.621-5.73-4.9743 0-12.588-16.384-9.1923-19.78 0.90639-0.9064 0.86882-1.7608-0.16213-3.6872-1.0648-1.9896-1.1025-3.3066-0.18225-6.378 1.4229-4.7492 0.16795-9.1295-3.9936-13.94-5.2569-6.0764-4.2264-19.825 1.9851-26.484 2.4741-2.6522 2.5151-2.8831 0.97583-5.5-0.8839-1.502-1.932-5.431-2.3293-8.731s-1.5664-7.772-2.598-9.938c-5.3136-11.155 0.7328-32.562 9.1973-32.562 1.61 0 2.927-0.394 2.927-0.875 0-0.48125 1.2593-1.1269 2.7985-1.4347 2.1633-0.43265 3.3367-1.7088 5.1696-5.6221 2.1439-4.5773 3.076-5.4107 9.7263-8.6967l7.3552-3.6343 6.1097 1.2966c4.1254 0.87546 7.0215 2.1878 8.9168 4.0406 2.4029 2.3489 3.9314 2.8388 10.615 3.4023 4.2946 0.36206 8.9435 1.0901 10.331 1.6179 2.5246 0.9604 2.6616 0.90544 14.978-6.0097 15.997-8.982 27.885-3.6495 21.218 9.5177-5.8497 11.553 3.4318 10.326 9.791-1.2939 2.3974-4.3807 6.7071-7.0156 9.6363-5.8915 1.0524 0.40386 2.648-0.23979 4.268-1.7217 13.092-11.976 35.766-1.7606 28.049 12.637-2.3799 4.4403-2.0436 8.9676 1.2128 16.329 2.8886 6.5301 3.564 16.151 1.4337 20.422-3.6907 7.3982-2.8215 11.448 3.8169 17.784 4.5132 4.3078 5.3965 8.7092 3.3369 16.628-1.3483 5.184-1.3701 6.3618-0.16076 8.7003 1.9451 3.7615 1.7464 7.0922-0.60136 10.077-1.1 1.3984-2 3.0341-2 3.6349 0 0.60075-0.90661 1.0923-2.0147 1.0923-3.3613 0-5.6279 5.1534-6.2775 14.273-0.5653 7.9356-3.3905 16.795-5.8383 18.308-0.59045 0.36492-1.6778 2.1095-2.4162 3.8769-1.6514 3.9524-11.809 9.3235-19.313 10.212-6.46 0.78-16.14-0.44-16.14-2.02 0-0.66684-1.2375-1.9561-2.75-2.865-1.5125-0.90892-4.2403-3.0309-6.0617-4.7156-4.1771-3.8634-3.995-3.8845-10.253 1.187-2.8843 2.3375-7.3122 5.6778-9.8398 7.4228s-5.1669 3.6834-5.8651 4.3076c-5.4222 4.8472-14.419 6.0577-20.88 2.8094zm22.351-13.384c4.5387-4.0382 10.047-8.258 12.242-9.3774 2.1942-1.1194 4.4618-2.918 5.0392-3.9968 0.64434-1.2039 3.587-2.7453 7.6186-3.9905 15.978-4.9352 27.858-22.255 17.869-26.052-2.9905-1.137-6.2698-0.19817-6.9656 1.9942-2.2178 6.9878-17.48 15.706-28.546 16.306-8.8615 0.4808-12.422 2.1185-16.46 7.5712-2.6976 3.643-11.094 9.4055-13.179 9.0446-4.2482-0.73531-4.2949 1.7076-0.17227 9.0125 6.0424 10.706 10.047 10.616 22.553-0.51168zm52.396-2.284c2.5288-0.41731 5.2288-1.2707 6-1.8965 8.797-7.1375 11.325-12.009 11.791-22.726 0.33377-7.6713 3.1031-14.025 7.0916-16.269 3.812-2.1453 4.558-4.8192 3.0722-11.013-0.82396-3.4347-0.8538-5.6106-0.10398-7.5828 1.7769-4.6737 1.1313-6.9467-3.4134-12.018-4.9264-5.4967-5.0623-5.5079-15.035-1.2358-3.3 1.4136-7.1824 2.5809-8.6276 2.594-3.1274 0.02825-3.9603 0.98045-6.4681 7.3946-1.0474 2.679-3.2941 5.9959-4.9926 7.371-2.3006 1.8625-2.9717 3.1095-2.6314 4.8898 0.44162 2.3102 0.8825 2.531 7.8071 3.9093 5.7964 1.1538 9.4139 7.5531 5.9125 10.459-0.825 0.68469-1.5 2.0275-1.5 2.9841 0 5.8485-11.5 20.066-17.877 22.101-5.5537 1.7727-5.9 2.5994-2.509 5.9903 4.6454 4.6454 12.597 6.5132 21.484 5.0466zm-90.583-4.652c6.852-2.3 6.983-2.52 6.983-11.78 0-6.5672 0.44772-9.0504 2.25-12.479 1.2375-2.3544 2.25-4.4395 2.25-4.6335 0-0.19399-2.925-0.66595-6.5-1.0488s-6.5-1.0557-6.5-1.4952-1.4625-1.3747-3.25-2.0783c-8.7509-3.4444-11.636-5.1693-16.25-9.7143-4.7952-4.7237-7.2738-8.5299-9.4585-14.525-2.4145-6.6255-6.9578-3.4557-7.0097 4.8907-0.02703 4.3473 0.56836 5.9983 3.9667 11 4.5778 6.7376 5.7461 11.173 4.0327 15.31-0.99565 2.4037-0.91964 3.3158 0.45067 5.4071 1.515 2.3122 1.5193 2.7653 0.05291 5.6009-2.0431 3.9509-1.3436 5.2612 6.6964 12.543l6.2688 5.6774 5.5151-0.50856c3.0333-0.2797 7.7583-1.2581 10.5-2.1743zm23.841-12.121c5.8089-7.4559 9.7526-9.6013 18.58-10.107 15.077-0.86389 26.722-8.8681 28.361-19.492 0.69534-4.5097 0.95791-4.4893-9.6363-0.75-4.6748 1.65-10.136 3-12.137 3-4.8273 0-12.633 1.9464-14.602 3.6409-0.871 0.74-2.053 1.35-2.63 1.35-0.57685 0-1.567 0.62443-2.2004 1.3876-0.63339 0.76319-4.0726 2.7829-7.6427 4.4882-4.6975 2.2438-6.7822 3.8638-7.5445 5.8624-5.0871 13.337 1.5338 20.771 9.4497 10.611zm-19.384-21.32c1.2518-0.79162 1.146-1.281-0.70227-3.2483-7.5837-8.0725-7.0595-22.615 0.93132-25.837 8.5995-3.4676 9.8492-5.3457 9.8754-14.842 0.01307-4.7358 0.11332-11.077 0.22277-14.091l0.199-5.482-5.5-0.843c-14.223-2.178-20.429-0.246-27.757 8.641-14.675 17.799-8.388 44.082 11.757 49.152 3.2319 0.81303 5.3787 2.456 6.8718 5.259 1.3211 2.4801 1.9191 2.6678 4.102 1.2874zm10.276-3.09c3.9063-1.0848 4.6973-2.2861 2.4019-3.6477-2.3763-1.4096-6.4988-8.6524-7.7123-13.55-1.2692-5.1218-1.9381-5.6086-4.3682-3.1786-3.0181 3.0181-0.94136 14.663 3.5883 20.121 1.3021 1.569 1.3515 1.571 6.0903 0.25498zm16.75-5.45c-0.68469-0.825-2.0056-1.5-2.9354-1.5-4.9286 0-7.2012-5.1425-6.4822-14.668 0.53226-7.0508 0.35508-9.5734-0.83145-11.838l-1.5079-2.8778-0.68957 3.1396c-0.37926 1.7268-2.0843 4.5032-3.7889 6.1698-3.0569 2.9887-3.0807 3.0887-1.7377 7.3022 4.1309 12.961 6.75 15.646 15.346 15.733 3.33 0.03 3.698-0.17 2.627-1.46zm23.796-2.963c0.84-0.85-3.133-7.54-4.477-7.54-1.459 0-6.323 6.14-6.323 7.98 0 1.2678 9.4738 0.87583 10.796-0.44665zm-18.331-3.59c-0.72185-1.168-1.558-1.1795-3.3471-0.04632-2.2108 1.4003-0.38165 3.3059 1.9668 2.049 1.082-0.57908 1.7032-1.4803 1.3803-2.0027zm40.146-5.7106c0.72605-0.95659 2.0282-3.8238 2.8937-6.3716 0.86548-2.5478 2.4262-5.404 3.4683-6.3471 1.0421-0.94308 2.3617-3.0542 2.9324-4.6913 3.0562-8.7671-10.905 1.5776-18.019 13.351-2.23 3.6908-4.6878 7.2361-5.4618 7.8784-0.77399 0.64235-1.1676 1.5557-0.8747 2.0296 0.74462 1.2048 13.453-3.7306 15.061-5.8491zm-33.19 3.874c0.301-0.487-0.122-1.442-0.941-2.122s-1.489-0.993-1.489-0.695c0 0.29736-0.27314 1.2525-0.60699 2.1224-0.65006 1.694 2.0392 2.3095 3.037 0.69509zm-13.614-3.854c-0.355-3.076-3.456-4.36-4.426-1.833-0.928 2.419 0.318 4.574 2.645 4.574 1.6972 0 2.0374-0.5235 1.7814-2.7414zm28.034-10.009c0.02-18.59-4.81-22.557-26.556-21.786l-12.794 0.453v3.1308c0 4.59 16.185 12.221 24 11.316 6.1111-0.70771 8.3869 1.2215 9.2108 7.8079 0.433 3.46 4.249 9.828 5.889 9.828 0.12626 0 0.23597-4.8375 0.24379-10.75zm-18.038 5.485c0.398-2.066-2.488-3.459-4.012-1.935-1.5236 1.5236-0.13109 4.4104 1.9355 4.0124 0.95785-0.18446 1.8925-1.1191 2.0769-2.0769zm6.188-3.766c0-1.198-2.821-2.482-3.643-1.659-0.876 0.876 0.609 2.69 2.202 2.69 0.793 0 1.441-0.464 1.441-1.031zm21.786-3.1504c3.7944-4.9369 3.9497-6.7368 1.0299-11.932-3.15-5.591-4.82-5.078-4.82 1.473 0 2.9482-0.28617 7.4482-0.63592 10-0.78864 5.7537 0.26757 5.8631 4.4219 0.45779zm-35.569 1.431c0.732-2.825-0.218-4.25-2.836-4.25-2.8742 0-4.1336 2.3934-2.3747 4.5127 1.6814 2.026 4.6553 1.876 5.21-0.26274zm65.819-8.27c2.18-1.112 3.96-2.721 3.96-3.577 0-0.85613 1.3287-2.8853 2.9526-4.5092 5.4256-5.4256 7.6449-10.479 6.2279-14.181-1.0191-2.6623-0.98478-3.3728 0.20032-4.1479 1.2054-0.78829 1.0347-1.8097-1.0861-6.5-6.6357-14.675-7.0836-21.054-1.6241-23.13 2.8249-1.074 4.1401-5.5529 2.2002-7.4929-3.0016-3.0016-11.302-2.0778-17.079 1.9009-2.92 2.011-6.5 3.657-7.95 3.657-2.0667 0-3.2063 0.9556-5.2031 4.3628-6.7675 11.548-14.058 13.406-21.607 5.5071-4.3951-4.599-4.683-6.9202-1.4623-11.787 3.4203-5.1684 3.2275-5.3234-4.4064-3.5426-14.699 3.429-19.185 8.1209-19.831 20.742l-0.48473 9.4672 4.829 0.67706c11.027 1.5461 14.97 3.3016 19.013 8.4657 2.0989 2.681 5.7294 6.0938 8.0677 7.5841 2.3383 1.4902 6.0183 4.7765 8.1777 7.3028l3.9262 4.5933 3.876-2.6861c6.75-4.673 11.27-2.678 11.27 4.969 0 4.9321 0.52941 5.1359 6.0398 2.3247zm-127.74-9.125c1.4678-4.9944 2.9632-7.3496 8-12.6 9.078-9.462 10.286-9.912 24.375-9.081 13.129 0.774 13.32 0.732 13.32-2.895 0-6.264 5.953-12.831 10.579-11.67 2.8705 0.72044 2.8316 0.95324 0.82484-4.9361-1.778-5.219-2.141-5.391-12.43-5.91-5.745-0.29-7.112-0.777-11.427-4.072-9.015-6.8832-16.371-5.1843-21.854 5.048-2.569 4.793-3.269 5.372-8.228 6.814-10.576 3.075-16.303 23.576-9.623 34.447 1.1929 1.9414 2.1523 5.17 2.1544 7.25 0.0058 5.808 2.2676 4.5506 4.309-2.3954zm84.695-6.675c0-8.319-22.143-16.526-26.119-9.68-3.2569 5.6076-3.5746 8.9237-0.77871 8.1281 8.2666-2.3524 18.935-1.4509 26.647 2.2518 0.1375 0.06601 0.25-0.24898 0.25-0.69998zm-31.307-8.43c5.8113-11.279 7.0456-18.148 3.1571-17.57-2.893 0.43004-6.2368 5.1326-6.4677 9.0957-0.1033 1.7731-0.51782 5.3613-0.92115 7.9738-0.95979 6.2168 1.1573 6.4669 4.2318 0.5z"/>
</svg>
